<?xml version="1.0" encoding="UTF-8" standalone="no"?>
<svg
   xmlns:dc="http://purl.org/dc/elements/1.1/"
   xmlns:cc="http://creativecommons.org/ns#"
   xmlns:rdf="http://www.w3.org/1999/02/22-rdf-syntax-ns#"
   xmlns:svg="http://www.w3.org/2000/svg"
   xmlns="http://www.w3.org/2000/svg"
   xmlns:sodipodi="http://sodipodi.sourceforge.net/DTD/sodipodi-0.dtd"
   xmlns:inkscape="http://www.inkscape.org/namespaces/inkscape"
   enable-background="new 0 0 64 64"
   height="64px"
   version="1.1"
   viewBox="0 0 64 64"
   width="64px"
   xml:space="preserve"
   id="svg2"
   inkscape:version="0.91 r13725"
   sodipodi:docname="Extension.svg"><metadata
     id="metadata42"><rdf:RDF><cc:Work
         rdf:about=""><dc:format>image/svg+xml</dc:format><dc:type
           rdf:resource="http://purl.org/dc/dcmitype/StillImage" /><dc:title /></cc:Work></rdf:RDF></metadata><defs
     id="defs40" /><sodipodi:namedview
     pagecolor="#ffffff"
     bordercolor="#666666"
     borderopacity="1"
     objecttolerance="10"
     gridtolerance="10"
     guidetolerance="10"
     inkscape:pageopacity="0"
     inkscape:pageshadow="2"
     inkscape:window-width="1366"
     inkscape:window-height="715"
     id="namedview38"
     showgrid="false"
     inkscape:zoom="3.6875"
     inkscape:cx="-10.033898"
     inkscape:cy="32"
     inkscape:window-x="-8"
     inkscape:window-y="-8"
     inkscape:window-maximized="1"
     inkscape:current-layer="svg2" /><rect
     style="opacity:1;fill:#003dff;fill-opacity:1;stroke:#ffffff;stroke-width:0;stroke-linecap:butt;stroke-linejoin:miter;stroke-miterlimit:10;stroke-dasharray:none;stroke-dashoffset:0;stroke-opacity:0.39751557"
     id="rect4186"
     width="65.084747"
     height="63.999996"
     x="-0.54237378"
     y="0.27118662" /><g
     id="g4148"
     transform="matrix(0.74011299,0,0,0.71254237,8.3163842,8.5369492)"><g
       id="g9"
       style="opacity:0.2"><path
         d="M 55.949,32.5 C 55.204,20.441 45.559,10.796 33.5,10.051 l 0,-0.051 -3,0 0,0.051 C 18.441,10.796 8.796,20.441 8.051,32.5 l -0.051,0 0,3 0.051,0 C 8.796,47.559 18.441,57.204 30.5,57.949 l 0,0.051 3,0 0,-0.051 C 45.559,57.205 55.204,47.559 55.949,35.5 l 0.051,0 0,-3 -0.051,0 z m -10.478,0 c -0.097,-2.784 -0.458,-5.441 -1.044,-7.888 1.835,-0.595 3.55,-1.315 5.091,-2.165 1.935,2.924 3.143,6.358 3.406,10.053 l -7.453,0 z m -6.54,-14 c 0.688,1.222 1.27,2.583 1.767,4.03 -2.271,0.519 -4.693,0.833 -7.198,0.924 l 0,-10.187 c 1.947,0.635 3.867,2.452 5.431,5.233 z m -8.431,-5.233 0,10.187 c -2.505,-0.091 -4.928,-0.405 -7.198,-0.924 0.497,-1.448 1.08,-2.808 1.767,-4.03 1.564,-2.781 3.484,-4.598 5.431,-5.233 z m 0,13.186 0,6.047 -8.96,0 c 0.091,-2.477 0.399,-4.867 0.924,-7.091 2.541,0.594 5.247,0.949 8.036,1.044 z m 0,9.047 0,6.196 c -2.776,0.094 -5.469,0.445 -8,1.034 -0.544,-2.263 -0.867,-4.7 -0.96,-7.23 l 8.96,0 z m 0,9.195 0,10.038 C 28.553,54.098 26.633,52.281 25.069,49.5 24.403,48.316 23.835,47.003 23.348,45.606 25.605,45.094 28.012,44.784 30.5,44.695 Z m 3,10.038 0,-10.037 c 2.488,0.091 4.894,0.402 7.151,0.915 -0.487,1.394 -1.055,2.706 -1.72,3.889 -1.564,2.781 -3.484,4.598 -5.431,5.233 z m 0,-13.036 0,-6.197 8.96,0 c -0.093,2.531 -0.417,4.969 -0.961,7.234 -2.53,-0.589 -5.223,-0.942 -7.999,-1.037 z m 0,-9.197 0,-6.047 c 2.789,-0.095 5.495,-0.45 8.036,-1.044 0.524,2.224 0.832,4.614 0.924,7.091 l -8.96,0 z M 47.651,20.047 c -1.239,0.651 -2.596,1.215 -4.046,1.691 -0.944,-2.818 -2.204,-5.26 -3.692,-7.178 2.987,1.22 5.621,3.115 7.738,5.487 z M 24.087,14.56 c -1.488,1.918 -2.748,4.36 -3.692,7.178 -1.45,-0.476 -2.807,-1.04 -4.046,-1.691 2.117,-2.372 4.751,-4.267 7.738,-5.487 z m -9.606,7.888 c 1.541,0.85 3.257,1.569 5.091,2.164 -0.586,2.447 -0.947,5.104 -1.044,7.888 l -7.453,0 c 0.264,-3.694 1.472,-7.128 3.406,-10.052 z M 18.529,35.5 c 0.099,2.836 0.473,5.539 1.078,8.024 -1.821,0.587 -3.528,1.295 -5.062,2.133 C 12.571,42.711 11.342,39.238 11.076,35.5 l 7.453,0 z M 16.44,48.053 c 1.227,-0.637 2.567,-1.191 3.998,-1.658 0.939,2.762 2.184,5.156 3.649,7.044 -2.945,-1.202 -5.545,-3.061 -7.647,-5.386 z m 23.473,5.387 c 1.464,-1.887 2.708,-4.279 3.647,-7.038 1.429,0.467 2.767,1.022 3.993,1.659 -2.101,2.321 -4.698,4.177 -7.64,5.379 z m 9.536,-7.774 c -1.532,-0.839 -3.238,-1.548 -5.058,-2.136 0.606,-2.487 0.981,-5.191 1.08,-8.03 l 7.453,0 c -0.266,3.741 -1.498,7.219 -3.475,10.166 z"
         id="path11"
         inkscape:connector-curvature="0"
         style="fill:#231f20" /></g><g
       id="g13"><path
         d="M 32,11 C 43.579,11 53,20.421 53,32 53,43.579 43.579,53 32,53 20.421,53 11,43.579 11,32 11,20.421 20.421,11 32,11 M 32,8 C 18.745,8 8,18.745 8,32 8,45.255 18.745,56 32,56 45.255,56 56,45.255 56,32 56,18.745 45.255,8 32,8 l 0,0 z"
         id="path15"
         inkscape:connector-curvature="0"
         style="fill:#ffffff" /></g><g
       id="g17"><path
         d="m 32,11 c 2.439,0 4.965,2.005 6.931,5.5 2.302,4.092 3.569,9.596 3.569,15.5 0,5.904 -1.267,11.408 -3.569,15.5 C 36.965,50.995 34.439,53 32,53 29.561,53 27.035,50.995 25.069,47.5 22.767,43.408 21.5,37.904 21.5,32 21.5,26.096 22.767,20.592 25.069,16.5 27.035,13.005 29.561,11 32,11 M 32,8 C 24.544,8 18.5,18.745 18.5,32 18.5,45.255 24.544,56 32,56 39.456,56 45.5,45.255 45.5,32 45.5,18.745 39.456,8 32,8 l 0,0 z"
         id="path19"
         inkscape:connector-curvature="0"
         style="fill:#ffffff" /></g><g
       id="g21"><rect
         height="48"
         width="3"
         x="30.5"
         y="8"
         id="rect23"
         style="fill:#ffffff" /></g><g
       id="g25"><path
         d="m 32,24.5 c -7.425,0 -14.447,-1.861 -19.266,-5.106 L 14.41,16.906 C 18.746,19.825 25.157,21.5 32,21.5 c 6.836,0 13.244,-1.672 17.58,-4.588 l 1.674,2.49 C 46.436,22.642 39.418,24.5 32,24.5 Z"
         id="path27"
         inkscape:connector-curvature="0"
         style="fill:#ffffff" /></g><g
       id="g29"><path
         d="m 49.579,47.244 c -4.336,-2.92 -10.747,-4.595 -17.59,-4.595 -6.837,0 -13.244,1.673 -17.58,4.589 l -1.674,-2.49 c 4.817,-3.24 11.836,-5.099 19.254,-5.099 7.425,0 14.447,1.861 19.266,5.106 l -1.676,2.489 z"
         id="path31"
         inkscape:connector-curvature="0"
         style="fill:#ffffff" /></g><g
       id="g33"><rect
         height="3"
         width="48"
         x="8"
         y="30.5"
         id="rect35"
         style="fill:#ffffff" /></g></g><g
     id="Layer_2" /></svg>